<?xml version="1.0" encoding="utf-8"?>
<!-- Generator: Adobe Illustrator 24.1.2, SVG Export Plug-In . SVG Version: 6.00 Build 0)  -->
<svg version="1.1" id="Layer_1" xmlns="http://www.w3.org/2000/svg" xmlns:xlink="http://www.w3.org/1999/xlink" x="0px" y="0px"
	 viewBox="0 0 21.49 12.27" enable-background="new 0 0 21.49 12.27" xml:space="preserve">
<g>
	<g>
		<path fill="#67679A" d="M2.2,8.13V4.91H1.02V4.15h3.35v0.76H3.2v3.22H2.2z"/>
		<path fill="#67679A" d="M9.13,5.41c0,0.19-0.03,0.36-0.09,0.53C8.98,6.11,8.9,6.25,8.79,6.36C8.72,6.43,8.65,6.49,8.57,6.55
			C8.49,6.61,8.4,6.66,8.3,6.7c-0.1,0.04-0.2,0.07-0.32,0.1C7.86,6.82,7.73,6.83,7.59,6.83H7.07v1.3h-1V4.15h1.55
			c0.23,0,0.43,0.02,0.59,0.06c0.17,0.04,0.32,0.11,0.45,0.2c0.15,0.1,0.27,0.23,0.35,0.4C9.09,4.98,9.13,5.18,9.13,5.41z
			 M8.11,5.43c0-0.11-0.03-0.21-0.08-0.29C7.97,5.06,7.91,5.01,7.83,4.98C7.74,4.94,7.65,4.91,7.56,4.91C7.47,4.9,7.36,4.9,7.21,4.9
			H7.07v1.19h0.07c0.09,0,0.18,0,0.27,0c0.08,0,0.16-0.01,0.22-0.02c0.05-0.01,0.11-0.03,0.17-0.05C7.85,5.99,7.9,5.96,7.93,5.93
			C8,5.86,8.05,5.79,8.07,5.72C8.09,5.65,8.11,5.56,8.11,5.43z"/>
		<path fill="#67679A" d="M12.44,8.13H9.78V4.15h1v3.22h1.66V8.13z"/>
		<path fill="#67679A" d="M12.79,8.13l1.34-3.98h1.09l1.34,3.98h-1.03l-0.25-0.81h-1.25l-0.25,0.81H12.79z M15.07,6.6l-0.41-1.31
			L14.26,6.6H15.07z"/>
		<path fill="#67679A" d="M20.33,8.13h-0.96l-1.53-2.78v2.78h-0.91V4.15h1.23l1.27,2.28V4.15h0.91V8.13z"/>
	</g>
	<g>
		<polygon fill="#F7B80B" points="5.59,1.15 5.59,3.91 5.88,3.91 5.88,1.43 15.25,1.43 15.25,3.91 15.53,3.91 15.53,1.15 		"/>
		<polygon fill="#F7B80B" points="15.25,10.81 5.88,10.81 5.88,8.27 5.59,8.27 5.59,11.09 15.53,11.09 15.53,8.27 15.25,8.27 		"/>
	</g>
</g>
</svg>
